<svg xmlns="http://www.w3.org/2000/svg" version="1.1" xmlns:xlink="http://www.w3.org/1999/xlink" xmlns:svgjs="http://svgjs.com/svgjs" width="512" height="512" x="0" y="0" viewBox="0 0 512 512" style="enable-background:new 0 0 512 512" xml:space="preserve" class=""><g><g id="Layer_2" data-name="Layer 2"><g id="Layer_1-2" data-name="Layer 1"><g id="N"><circle cx="256" cy="256" fill="#02f0f0" r="256" data-original="#008fcc" class=""></circle><circle cx="256" cy="256" fill="#ffffff" r="231.71" data-original="#ffffff" class=""></circle><path id="N-2" d="m216.61 156.88 97.58 147.66v-149q0-14.52 6.24-21.79t16.83-7.26q10.94 0 17.26 7.26t6.33 21.79v197.02q0 33-27.35 33a36.4 36.4 0 0 1 -12.3-2 31.36 31.36 0 0 1 -10.26-6.24 60.49 60.49 0 0 1 -8.88-10q-4.11-5.73-8.21-11.71l-95.19-145.92v146.8q0 14.36-6.66 21.7a22 22 0 0 1 -17.09 7.35q-10.77 0-17.26-7.43t-6.5-21.62v-193.29q0-12.3 2.74-19.31a27.54 27.54 0 0 1 10.76-12.56 29.31 29.31 0 0 1 16.24-4.87 26.58 26.58 0 0 1 20.25 8.2 62 62 0 0 1 7.52 9.74q3.84 5.99 7.95 12.48z" fill="#02f0f0" data-name="N" data-original="#008fcc" class=""></path></g></g></g></g></svg>