<svg xmlns="http://www.w3.org/2000/svg" version="1.1" xmlns:xlink="http://www.w3.org/1999/xlink" xmlns:svgjs="http://svgjs.com/svgjs" width="512" height="512" x="0" y="0" viewBox="0 0 512 512" style="enable-background:new 0 0 512 512" xml:space="preserve" class=""><g transform="matrix(1,0,0,1,0,0)"><linearGradient id="paint0_linear" gradientUnits="userSpaceOnUse" x1="64" x2="448" y1="64" y2="448"><stop stop-opacity="1" stop-color="#02f0f0" offset="0"></stop><stop stop-opacity="1" stop-color="#0c3469" offset="0.9899613663956925"></stop><stop stop-opacity="1" stop-color="#0c3469" offset="0.9938223702566964"></stop><stop stop-opacity="0.72" stop-color="#0c3469" offset="1"></stop><stop stop-opacity="1" stop-color="#0c3469" offset="1"></stop><stop stop-opacity="1" stop-color="#0c3469" offset="1"></stop><stop stop-opacity="1" stop-color="#0c3469" offset="1"></stop></linearGradient><path clip-rule="evenodd" d="m128 24c-57.4376 0-104 46.5624-104 104v256c0 57.438 46.5624 104 104 104h256c57.438 0 104-46.562 104-104v-256c0-57.4376-46.562-104-104-104zm-88 104c0-48.6011 39.3989-88 88-88h256c48.601 0 88 39.3989 88 88v256c0 48.601-39.399 88-88 88h-256c-48.6011 0-88-39.399-88-88zm320-28c-15.464 0-28 12.536-28 28v185.408l-142.816-197.745c-20.448-28.3137-65.184-13.848-65.184 21.078v247.259c0 15.464 12.536 28 28 28s28-12.536 28-28v-185.408l142.816 197.745c20.448 28.314 65.184 13.848 65.184-21.078v-247.259c0-15.464-12.536-28-28-28zm-12 28c0-6.627 5.373-12 12-12s12 5.373 12 12v247.259c0 19.404-24.853 27.44-36.214 11.71l-157.301-217.801c-2.031-2.813-5.645-3.996-8.946-2.928-3.302 1.067-5.539 4.142-5.539 7.612v210.148c0 6.627-5.373 12-12 12s-12-5.373-12-12v-247.259c0-19.404 24.853-27.44 36.214-11.71l157.301 217.801c2.031 2.813 5.645 3.996 8.946 2.928 3.302-1.067 5.539-4.142 5.539-7.612z" fill="url(#paint0_linear)" fill-rule="evenodd" data-original="url(#paint0_linear)" class="">
</path></g></svg>